<?xml version="1.0" encoding="UTF-8" standalone="no"?>
<svg viewBox="0 0 3970 640"
     preserveAspectRatio="xMidYMid meet"
     version="1.1"
     baseProfile="full"
     xmlns="http://www.w3.org/2000/svg"
     xmlns:xlink="http://www.w3.org/1999/xlink"
     xmlns:ev="http://www.w3.org/2001/xml-events"
     xml:space="preserve">
<title>RISCTop</title>
<desc>Nlview schematic (SVG)</desc>
<clipPath id="clippingbbox">
<rect x="0" y="0" width="3970" height="640" />
</clipPath>
<g stroke="#628d30"
   stroke-width="1"
   stroke-linecap="butt"
   stroke-linejoin="miter"
   stroke-miterlimit="4"
   stroke-dasharray="none"
   stroke-dashoffset="0"
   fill="none"
   font-family="Helvetica"
   font-style="normal"
   font-size="12"
   writing-mode="lr-tb"
   cursor="crosshair"
   clip-path="url(#clippingbbox)">
<path d="M0 0h3970v641h-3970z" stroke="none" fill="#21222b" />
<path d="M110 198h60v202h-60z" stroke="none" fill="#2e446d" />
<g stroke="#797f8e">
<path d="M110 198h60v202h-60z" />
</g>
<g stroke="#797f8e" stroke-width="3">
<path d="M121 203v12" />
<path d="M115 209h12" />
</g>
<g stroke="#797f8e">
<path d="M113 201h16v16h-16z" />
<text x="140" y="196" fill="#f7f8f9" stroke-width="0" text-anchor="middle" dy="-1.6">control_unit_inst</text>
<text x="140" y="402" fill="#f7f8f9" stroke-width="0" text-anchor="middle" dy="9.6">ControlUnit</text>
</g>
<g stroke="#f7f8f9">
<path d="M180 250h-10" />
<text x="172" y="249" fill="#f7f8f9" stroke-width="0" font-size="10" dy="-1.33333">alu_src</text>
<path d="M180 270h-10" />
<text x="172" y="269" fill="#f7f8f9" stroke-width="0" font-size="10" dy="-1.33333">branch</text>
<path d="M180 310h-10" />
<text x="172" y="309" fill="#f7f8f9" stroke-width="0" font-size="10" dy="-1.33333">jump</text>
<path d="M180 330h-10" />
<text x="172" y="329" fill="#f7f8f9" stroke-width="0" font-size="10" dy="-1.33333">mem_read</text>
<path d="M180 350h-10" />
<text x="172" y="349" fill="#f7f8f9" stroke-width="0" font-size="10" dy="-1.33333">mem_to_reg</text>
<path d="M180 370h-10" />
<text x="172" y="369" fill="#f7f8f9" stroke-width="0" font-size="10" dy="-1.33333">mem_write</text>
<path d="M180 390h-10" />
<text x="172" y="389" fill="#f7f8f9" stroke-width="0" font-size="10" dy="-1.33333">reg_write</text>
</g>
<g stroke="#f7f8f9" stroke-width="3">
<path d="M180 230h-10" />
<text x="172" y="229" fill="#f7f8f9" stroke-width="0" font-size="10" dy="-1.33333">alu_ctrl[4:0]</text>
<path d="M100 290h10" />
<text x="108" y="289" fill="#f7f8f9" stroke-width="0" font-size="10" text-anchor="end" dy="-1.33333">funct3[2:0]</text>
<path d="M100 310h10" />
<text x="108" y="309" fill="#f7f8f9" stroke-width="0" font-size="10" text-anchor="end" dy="-1.33333">funct7[6:0]</text>
<path d="M180 290h-10" />
<text x="172" y="289" fill="#f7f8f9" stroke-width="0" font-size="10" dy="-1.33333">imm_select[2:0]</text>
<path d="M100 330h10" />
<text x="108" y="329" fill="#f7f8f9" stroke-width="0" font-size="10" text-anchor="end" dy="-1.33333">opcode[6:0]</text>
</g>
<g stroke="#f7f8f9">
<path d="M160 250h10" />
<path d="M160 270h10" />
<path d="M160 310h10" />
<path d="M160 330h10" />
<path d="M160 350h10" />
<path d="M160 370h10" />
<path d="M160 390h10" />
</g>
<g stroke="#f7f8f9" stroke-width="3">
<path d="M160 230h10" />
<path d="M120 290h-10" />
<path d="M120 310h-10" />
<path d="M160 290h10" />
<path d="M120 330h-10" />
<path d="M520 178h60v62h-60z" stroke="none" fill="#2e446d" />
</g>
<g stroke="#797f8e">
<path d="M520 178h60v62h-60z" />
</g>
<g stroke="#797f8e" stroke-width="3">
<path d="M531 183v12" />
<path d="M525 189h12" />
</g>
<g stroke="#797f8e">
<path d="M523 181h16v16h-16z" />
<text x="550" y="176" fill="#f7f8f9" stroke-width="0" text-anchor="middle" dy="-1.6">imm_gen_inst</text>
<text x="550" y="242" fill="#f7f8f9" stroke-width="0" text-anchor="middle" dy="9.6">ImmediateGenerator</text>
</g>
<g stroke="#f7f8f9" stroke-width="3">
<path d="M510 210h10" />
<text x="518" y="209" fill="#f7f8f9" stroke-width="0" font-size="10" text-anchor="end" dy="-1.33333">imm_select[2:0]</text>
<path d="M590 210h-10" />
<text x="582" y="209" fill="#f7f8f9" stroke-width="0" font-size="10" dy="-1.33333">immediate[31:0]</text>
<path d="M510 230h10" />
<text x="518" y="229" fill="#f7f8f9" stroke-width="0" font-size="10" text-anchor="end" dy="-1.33333">instruction[31:0]</text>
<path d="M530 210h-10" />
<path d="M570 210h10" />
<path d="M530 230h-10" />
</g>
<g stroke="#797f8e">
<path d="M810 150v-4" />
<path d="M802 146h16" />
<circle cx="980" cy="200" r="20" stroke="none" fill="#50306c" />
<circle cx="980" cy="200" r="20" />
<path d="M1000 200" />
<path d="M960 190l2 1" />
<path d="M960 210l2 -1" />
<text x="980" y="200" fill="#797f8e" stroke-width="0" text-anchor="middle" dy="4.4">=</text>
<text x="975" y="178" fill="#f7f8f9" stroke-width="0" dy="-1.6">jalr_i</text>
<text x="975" y="222" fill="#f7f8f9" stroke-width="0" dy="9.6">RTL_EQ</text>
</g>
<g stroke="#f7f8f9">
<path d="M1010 200h-10" />
<text x="1002" y="199" fill="#f7f8f9" stroke-width="0" font-size="10" dy="-1.33333">O</text>
</g>
<g stroke="#f7f8f9" stroke-width="3">
<path d="M950 190h10" />
<text x="958" y="189" fill="#f7f8f9" stroke-width="0" font-size="10" text-anchor="end" dy="-1.33333">I0[6:0]</text>
<path d="M950 210h10" />
<text x="958" y="209" fill="#f7f8f9" stroke-width="0" font-size="10" text-anchor="end" dy="-1.33333">I1[6:0]</text>
<text x="912" y="209" fill="white" stroke-width="0" font-size="8" text-anchor="end" dy="-1.06667">V=B&quot;1100111&quot;</text>
</g>
<g stroke="#797f8e">
<path d="M802 250h16" />
<path d="M805 253h10" />
<path d="M808 256h4" />
<circle cx="980" cy="300" r="20" stroke="none" fill="#50306c" />
<circle cx="980" cy="300" r="20" />
<path d="M960 290l2 1" />
<path d="M960 310l2 -1" />
<path d="M1000 300" />
<text x="980" y="300" fill="#797f8e" stroke-width="0" text-anchor="middle" dy="4.4">+</text>
<text x="975" y="278" fill="#f7f8f9" stroke-width="0" dy="-1.6">pc_branch0_i</text>
<text x="975" y="322" fill="#f7f8f9" stroke-width="0" dy="9.6">RTL_ADD</text>
</g>
<g stroke="#f7f8f9" stroke-width="3">
<path d="M950 290h10" />
<text x="958" y="289" fill="#f7f8f9" stroke-width="0" font-size="10" text-anchor="end" dy="-1.33333">I0[31:0]</text>
<path d="M950 310h10" />
<text x="958" y="309" fill="#f7f8f9" stroke-width="0" font-size="10" text-anchor="end" dy="-1.33333">I1[31:0]</text>
<path d="M1010 300h-10" />
<text x="1002" y="299" fill="#f7f8f9" stroke-width="0" font-size="10" dy="-1.33333">O[31:0]</text>
<path d="M960 460v15h25h3l3 -1l2 -1l2 -2l3 -3l1 -2l1 -3v-3v-3l-1 -3l-1 -2l-2 -2l-3 -3l-2 -1l-3 -1h-3h-25z" stroke="none" fill="#50306c" />
</g>
<g stroke="#797f8e">
<path d="M960 460v15h25" />
<path d="M985,475 A15,15 -3.14159 1,0 985,445" />
<path d="M985 445h-25v15" />
<text x="962" y="444" fill="#f7f8f9" stroke-width="0" dy="-1.6">pc_select0_i</text>
<text x="962" y="476" fill="#f7f8f9" stroke-width="0" dy="9.6">RTL_AND</text>
</g>
<g stroke="#f7f8f9">
<path d="M950 450h10" />
<text x="959" y="449" fill="#f7f8f9" stroke-width="0" font-size="10" text-anchor="end" dy="-1.33333">I0</text>
<path d="M950 470h10" />
<text x="959" y="469" fill="#f7f8f9" stroke-width="0" font-size="10" text-anchor="end" dy="-1.33333">I1</text>
<path d="M1010 460h-10" />
<text x="1001" y="459" fill="#f7f8f9" stroke-width="0" font-size="10" dy="-1.33333">O</text>
<path d="M1280 180l40 15v30l-40 15z" stroke="none" fill="#50306c" />
</g>
<g stroke="#797f8e">
<path d="M1280 180l40 15v30l-40 15z" />
<text x="1300" y="178" fill="#f7f8f9" stroke-width="0" text-anchor="middle" dy="-1.6">pc_branch_i</text>
<text x="1304" y="234" fill="#f7f8f9" stroke-width="0" dy="9.6">RTL_MUX</text>
</g>
<g stroke="#f7f8f9">
<path d="M1300 240v-8" />
<text x="1298" y="240" fill="#f7f8f9" stroke-width="0" font-size="10" text-anchor="end" dy="8">S</text>
</g>
<g stroke="#f7f8f9" stroke-width="3">
<path d="M1270 200h10" />
<text x="1278" y="199" fill="#f7f8f9" stroke-width="0" font-size="10" text-anchor="end" dy="-1.33333">I0[31:0]</text>
<text x="1226" y="199" fill="white" stroke-width="0" font-size="8" text-anchor="end" dy="-1.06667">S=1&apos;b1</text>
<path d="M1270 220h10" />
<text x="1278" y="219" fill="#f7f8f9" stroke-width="0" font-size="10" text-anchor="end" dy="-1.33333">I1[31:0]</text>
<text x="1226" y="219" fill="white" stroke-width="0" font-size="8" text-anchor="end" dy="-1.06667">S=default</text>
<path d="M1330 210h-10" />
<text x="1322" y="209" fill="#f7f8f9" stroke-width="0" font-size="10" dy="-1.33333">O[31:0]</text>
<path d="M1280 425l2 2l2 3l1 2l1 3l1 3v4l-1 3l-1 3l-1 2l-2 3l-2 2h15h3l3 -1l3 -1l2 -1l3 -1l3 -2l2 -2l2 -2l2 -2l2 -3l-2 -3l-2 -2l-2 -2l-2 -2l-3 -2l-3 -1l-2 -1l-3 -1l-3 -1h-3z" stroke="none" fill="#50306c" />
</g>
<g stroke="#797f8e">
<path d="M1280,425 A19.5714,19.5714 1.74651 0,1 1280,455" />
<path d="M1280 455h15" />
<path d="M1295,455 A32.596,32.596 -0.927295 0,0 1320,440" />
<path d="M1320,440 A32.596,32.596 -0.927295 0,0 1295,425" />
<path d="M1295 425h-15" />
<text x="1282" y="424" fill="#f7f8f9" stroke-width="0" dy="-1.6">pc_select_i</text>
<text x="1282" y="456" fill="#f7f8f9" stroke-width="0" dy="9.6">RTL_OR</text>
</g>
<g stroke="#f7f8f9">
<path d="M1270 430h14" />
<text x="1279" y="429" fill="#f7f8f9" stroke-width="0" font-size="10" text-anchor="end" dy="-1.33333">I1</text>
<path d="M1330 440h-10" />
<text x="1321" y="439" fill="#f7f8f9" stroke-width="0" font-size="10" dy="-1.33333">O</text>
</g>
<g stroke="#f7f8f9" stroke-width="3">
<path d="M1270 450h14" />
<text x="1279" y="449" fill="#f7f8f9" stroke-width="0" font-size="10" text-anchor="end" dy="-1.33333">I0</text>
<text x="1263" y="449" fill="white" stroke-width="0" font-size="8" text-anchor="end" dy="-1.06667">n/c</text>
</g>
<g stroke="#797f8e">
<path d="M1140 510v-4" />
<path d="M1132 506h16" />
<circle cx="1300" cy="560" r="20" stroke="none" fill="#50306c" />
<circle cx="1300" cy="560" r="20" />
<path d="M1280 550l2 1" />
<path d="M1280 570l2 -1" />
<path d="M1320 560" />
<text x="1300" y="560" fill="#797f8e" stroke-width="0" text-anchor="middle" dy="4.4">+</text>
<text x="1295" y="538" fill="#f7f8f9" stroke-width="0" dy="-1.6">pc_plus4_i</text>
<text x="1295" y="582" fill="#f7f8f9" stroke-width="0" dy="9.6">RTL_ADD</text>
</g>
<g stroke="#f7f8f9" stroke-width="3">
<path d="M1270 550h10" />
<text x="1278" y="549" fill="#f7f8f9" stroke-width="0" font-size="10" text-anchor="end" dy="-1.33333">I0[31:0]</text>
<path d="M1270 570h10" />
<text x="1278" y="569" fill="#f7f8f9" stroke-width="0" font-size="10" text-anchor="end" dy="-1.33333">I1[2:0]</text>
<text x="1232" y="569" fill="white" stroke-width="0" font-size="8" text-anchor="end" dy="-1.06667">V=B&quot;100&quot;</text>
<path d="M1330 560h-10" />
<text x="1322" y="559" fill="#f7f8f9" stroke-width="0" font-size="10" dy="-1.33333">O[31:0]</text>
</g>
<g stroke="#797f8e">
<path d="M1132 610h16" />
<path d="M1135 613h10" />
<path d="M1138 616h4" />
<path d="M1640 178h60v122h-60z" stroke="none" fill="#2e446d" />
<path d="M1640 178h60v122h-60z" />
</g>
<g stroke="#797f8e" stroke-width="3">
<path d="M1651 183v12" />
<path d="M1645 189h12" />
</g>
<g stroke="#797f8e">
<path d="M1643 181h16v16h-16z" />
<text x="1670" y="176" fill="#f7f8f9" stroke-width="0" text-anchor="middle" dy="-1.6">data_memory_inst</text>
<text x="1670" y="302" fill="#f7f8f9" stroke-width="0" text-anchor="middle" dy="9.6">DataMem</text>
</g>
<g stroke="#f7f8f9">
<path d="M1630 230h10" />
<text x="1638" y="229" fill="#f7f8f9" stroke-width="0" font-size="10" text-anchor="end" dy="-1.33333">clk</text>
<path d="M1630 250h10" />
<text x="1638" y="249" fill="#f7f8f9" stroke-width="0" font-size="10" text-anchor="end" dy="-1.33333">mem_read</text>
<path d="M1630 270h10" />
<text x="1638" y="269" fill="#f7f8f9" stroke-width="0" font-size="10" text-anchor="end" dy="-1.33333">mem_write</text>
</g>
<g stroke="#f7f8f9" stroke-width="3">
<path d="M1630 210h10" />
<text x="1638" y="209" fill="#f7f8f9" stroke-width="0" font-size="10" text-anchor="end" dy="-1.33333">address[31:0]</text>
<path d="M1710 250h-10" />
<text x="1702" y="249" fill="#f7f8f9" stroke-width="0" font-size="10" dy="-1.33333">read_data[31:0]</text>
<path d="M1630 290h10" />
<text x="1638" y="289" fill="#f7f8f9" stroke-width="0" font-size="10" text-anchor="end" dy="-1.33333">write_data[31:0]</text>
</g>
<g stroke="#f7f8f9">
<path d="M1650 230h-10" />
<path d="M1650 250h-10" />
<path d="M1650 270h-10" />
</g>
<g stroke="#f7f8f9" stroke-width="3">
<path d="M1650 210h-10" />
<path d="M1690 250h10" />
<path d="M1650 290h-10" />
<path d="M1640 470l40 15v30l-40 15z" stroke="none" fill="#50306c" />
</g>
<g stroke="#797f8e">
<path d="M1640 470l40 15v30l-40 15z" />
<text x="1660" y="468" fill="#f7f8f9" stroke-width="0" text-anchor="middle" dy="-1.6">next_pc_i</text>
<text x="1664" y="524" fill="#f7f8f9" stroke-width="0" dy="9.6">RTL_MUX</text>
</g>
<g stroke="#f7f8f9">
<path d="M1660 530v-8" />
<text x="1658" y="530" fill="#f7f8f9" stroke-width="0" font-size="10" text-anchor="end" dy="8">S</text>
</g>
<g stroke="#f7f8f9" stroke-width="3">
<path d="M1630 490h10" />
<text x="1638" y="489" fill="#f7f8f9" stroke-width="0" font-size="10" text-anchor="end" dy="-1.33333">I0[31:0]</text>
<text x="1586" y="489" fill="white" stroke-width="0" font-size="8" text-anchor="end" dy="-1.06667">S=1&apos;b1</text>
<path d="M1630 510h10" />
<text x="1638" y="509" fill="#f7f8f9" stroke-width="0" font-size="10" text-anchor="end" dy="-1.33333">I1[31:0]</text>
<text x="1586" y="509" fill="white" stroke-width="0" font-size="8" text-anchor="end" dy="-1.06667">S=default</text>
<path d="M1690 500h-10" />
<text x="1682" y="499" fill="#f7f8f9" stroke-width="0" font-size="10" dy="-1.33333">O[31:0]</text>
<path d="M2060 230l40 15v30l-40 15z" stroke="none" fill="#50306c" />
</g>
<g stroke="#797f8e">
<path d="M2060 230l40 15v30l-40 15z" />
<text x="2080" y="228" fill="#f7f8f9" stroke-width="0" text-anchor="middle" dy="-1.6">write_back0_i</text>
<text x="2084" y="284" fill="#f7f8f9" stroke-width="0" dy="9.6">RTL_MUX</text>
</g>
<g stroke="#f7f8f9">
<path d="M2080 290v-8" />
<text x="2078" y="290" fill="#f7f8f9" stroke-width="0" font-size="10" text-anchor="end" dy="8">S</text>
</g>
<g stroke="#f7f8f9" stroke-width="3">
<path d="M2050 250h10" />
<text x="2058" y="249" fill="#f7f8f9" stroke-width="0" font-size="10" text-anchor="end" dy="-1.33333">I0[31:0]</text>
<text x="2006" y="249" fill="white" stroke-width="0" font-size="8" text-anchor="end" dy="-1.06667">S=1&apos;b1</text>
<path d="M2050 270h10" />
<text x="2058" y="269" fill="#f7f8f9" stroke-width="0" font-size="10" text-anchor="end" dy="-1.33333">I1[31:0]</text>
<text x="2006" y="269" fill="white" stroke-width="0" font-size="8" text-anchor="end" dy="-1.06667">S=default</text>
<path d="M2110 260h-10" />
<text x="2102" y="259" fill="#f7f8f9" stroke-width="0" font-size="10" dy="-1.33333">O[31:0]</text>
<path d="M2060 468h60v82h-60z" stroke="none" fill="#2e446d" />
</g>
<g stroke="#797f8e">
<path d="M2060 468h60v82h-60z" />
</g>
<g stroke="#797f8e" stroke-width="3">
<path d="M2071 473v12" />
<path d="M2065 479h12" />
</g>
<g stroke="#797f8e">
<path d="M2063 471h16v16h-16z" />
<text x="2090" y="466" fill="#f7f8f9" stroke-width="0" text-anchor="middle" dy="-1.6">pc_inst</text>
<text x="2090" y="552" fill="#f7f8f9" stroke-width="0" text-anchor="middle" dy="9.6">ProgramCounter</text>
</g>
<g stroke="#f7f8f9">
<path d="M2050 500h10" />
<text x="2058" y="499" fill="#f7f8f9" stroke-width="0" font-size="10" text-anchor="end" dy="-1.33333">clk</text>
<path d="M2050 540h10" />
<text x="2058" y="539" fill="#f7f8f9" stroke-width="0" font-size="10" text-anchor="end" dy="-1.33333">rst_n</text>
</g>
<g stroke="#f7f8f9" stroke-width="3">
<path d="M2050 520h10" />
<text x="2058" y="519" fill="#f7f8f9" stroke-width="0" font-size="10" text-anchor="end" dy="-1.33333">next_pc[31:0]</text>
<path d="M2130 520h-10" />
<text x="2122" y="519" fill="#f7f8f9" stroke-width="0" font-size="10" dy="-1.33333">pc[31:0]</text>
</g>
<g stroke="#f7f8f9">
<path d="M2070 500h-10" />
<path d="M2070 540h-10" />
</g>
<g stroke="#f7f8f9" stroke-width="3">
<path d="M2070 520h-10" />
<path d="M2110 520h10" />
<path d="M2380 230l40 15v30l-40 15z" stroke="none" fill="#50306c" />
</g>
<g stroke="#797f8e">
<path d="M2380 230l40 15v30l-40 15z" />
<text x="2400" y="228" fill="#f7f8f9" stroke-width="0" text-anchor="middle" dy="-1.6">write_back_i</text>
<text x="2404" y="284" fill="#f7f8f9" stroke-width="0" dy="9.6">RTL_MUX</text>
</g>
<g stroke="#f7f8f9">
<path d="M2400 290v-8" />
<text x="2398" y="290" fill="#f7f8f9" stroke-width="0" font-size="10" text-anchor="end" dy="8">S</text>
</g>
<g stroke="#f7f8f9" stroke-width="3">
<path d="M2370 250h10" />
<text x="2378" y="249" fill="#f7f8f9" stroke-width="0" font-size="10" text-anchor="end" dy="-1.33333">I0[31:0]</text>
<text x="2326" y="249" fill="white" stroke-width="0" font-size="8" text-anchor="end" dy="-1.06667">S=1&apos;b1</text>
<path d="M2370 270h10" />
<text x="2378" y="269" fill="#f7f8f9" stroke-width="0" font-size="10" text-anchor="end" dy="-1.33333">I1[31:0]</text>
<text x="2326" y="269" fill="white" stroke-width="0" font-size="8" text-anchor="end" dy="-1.06667">S=default</text>
<path d="M2430 260h-10" />
<text x="2422" y="259" fill="#f7f8f9" stroke-width="0" font-size="10" dy="-1.33333">O[31:0]</text>
<path d="M2380 350h180v20h-180z" stroke="none" fill="#50306c" />
</g>
<g stroke="#797f8e">
<path d="M2380 350h180v20h-180z" />
<text x="2470" y="348" fill="#f7f8f9" stroke-width="0" text-anchor="middle" dy="-1.6">instruction_memory_inst</text>
<text x="2470" y="372" fill="#f7f8f9" stroke-width="0" text-anchor="middle" dy="9.6">InstructionMem</text>
</g>
<g stroke="#f7f8f9" stroke-width="3">
<path d="M2370 360h10" />
<text x="2382" y="360" fill="#f7f8f9" stroke-width="0" font-size="10" dy="3.66667">PC[31:0]</text>
<path d="M2570 360h-10" />
<text x="2558" y="360" fill="#f7f8f9" stroke-width="0" font-size="10" text-anchor="end" dy="3.66667">instruction[31:0]</text>
<path d="M2780 208h60v162h-60z" stroke="none" fill="#2e446d" />
</g>
<g stroke="#797f8e">
<path d="M2780 208h60v162h-60z" />
</g>
<g stroke="#797f8e" stroke-width="3">
<path d="M2791 213v12" />
<path d="M2785 219h12" />
</g>
<g stroke="#797f8e">
<path d="M2783 211h16v16h-16z" />
<text x="2810" y="206" fill="#f7f8f9" stroke-width="0" text-anchor="middle" dy="-1.6">register_file_inst</text>
<text x="2810" y="372" fill="#f7f8f9" stroke-width="0" text-anchor="middle" dy="9.6">RegFile</text>
</g>
<g stroke="#f7f8f9">
<path d="M2770 240h10" />
<text x="2778" y="239" fill="#f7f8f9" stroke-width="0" font-size="10" text-anchor="end" dy="-1.33333">clk</text>
<path d="M2770 300h10" />
<text x="2778" y="299" fill="#f7f8f9" stroke-width="0" font-size="10" text-anchor="end" dy="-1.33333">rst_n</text>
<path d="M2770 320h10" />
<text x="2778" y="319" fill="#f7f8f9" stroke-width="0" font-size="10" text-anchor="end" dy="-1.33333">we</text>
</g>
<g stroke="#f7f8f9" stroke-width="3">
<path d="M2850 280h-10" />
<text x="2842" y="279" fill="#f7f8f9" stroke-width="0" font-size="10" dy="-1.33333">read_dataA[31:0]</text>
<path d="M2850 300h-10" />
<text x="2842" y="299" fill="#f7f8f9" stroke-width="0" font-size="10" dy="-1.33333">read_dataB[31:0]</text>
<path d="M2770 260h10" />
<text x="2778" y="259" fill="#f7f8f9" stroke-width="0" font-size="10" text-anchor="end" dy="-1.33333">read_regA[4:0]</text>
<path d="M2770 280h10" />
<text x="2778" y="279" fill="#f7f8f9" stroke-width="0" font-size="10" text-anchor="end" dy="-1.33333">read_regB[4:0]</text>
<path d="M2770 340h10" />
<text x="2778" y="339" fill="#f7f8f9" stroke-width="0" font-size="10" text-anchor="end" dy="-1.33333">write_data[31:0]</text>
<path d="M2770 360h10" />
<text x="2778" y="359" fill="#f7f8f9" stroke-width="0" font-size="10" text-anchor="end" dy="-1.33333">write_reg[4:0]</text>
</g>
<g stroke="#f7f8f9">
<path d="M2790 240h-10" />
<path d="M2790 300h-10" />
<path d="M2790 320h-10" />
</g>
<g stroke="#f7f8f9" stroke-width="3">
<path d="M2830 280h10" />
<path d="M2830 300h10" />
<path d="M2790 260h-10" />
<path d="M2790 280h-10" />
<path d="M2790 340h-10" />
<path d="M2790 360h-10" />
</g>
<g stroke="#797f8e">
<path d="M3050 50v-4" />
<path d="M3042 46h16" />
<circle cx="3230" cy="100" r="20" stroke="none" fill="#50306c" />
<circle cx="3230" cy="100" r="20" />
<path d="M3250 100" />
<path d="M3210 90l2 1" />
<path d="M3210 110l2 -1" />
<text x="3230" y="100" fill="#797f8e" stroke-width="0" text-anchor="middle" dy="4.4">=</text>
<text x="3225" y="78" fill="#f7f8f9" stroke-width="0" dy="-1.6">auipc_i</text>
<text x="3225" y="122" fill="#f7f8f9" stroke-width="0" dy="9.6">RTL_EQ</text>
</g>
<g stroke="#f7f8f9">
<path d="M3260 100h-10" />
<text x="3252" y="99" fill="#f7f8f9" stroke-width="0" font-size="10" dy="-1.33333">O</text>
</g>
<g stroke="#f7f8f9" stroke-width="3">
<path d="M3200 90h10" />
<text x="3208" y="89" fill="#f7f8f9" stroke-width="0" font-size="10" text-anchor="end" dy="-1.33333">I0[6:0]</text>
<path d="M3200 110h10" />
<text x="3208" y="109" fill="#f7f8f9" stroke-width="0" font-size="10" text-anchor="end" dy="-1.33333">I1[6:0]</text>
<text x="3162" y="109" fill="white" stroke-width="0" font-size="8" text-anchor="end" dy="-1.06667">V=B&quot;0010111&quot;</text>
<path d="M3210 200l40 15v30l-40 15z" stroke="none" fill="#50306c" />
</g>
<g stroke="#797f8e">
<path d="M3210 200l40 15v30l-40 15z" />
<text x="3230" y="198" fill="#f7f8f9" stroke-width="0" text-anchor="middle" dy="-1.6">alu_in10_i</text>
<text x="3234" y="254" fill="#f7f8f9" stroke-width="0" dy="9.6">RTL_MUX</text>
</g>
<g stroke="#f7f8f9" stroke-width="3">
<path d="M3200 220h10" />
<text x="3208" y="219" fill="#f7f8f9" stroke-width="0" font-size="10" text-anchor="end" dy="-1.33333">I0[31:0]</text>
<text x="3156" y="219" fill="white" stroke-width="0" font-size="8" text-anchor="end" dy="-1.06667">S=7&apos;b0110111</text>
<path d="M3200 240h10" />
<text x="3208" y="239" fill="#f7f8f9" stroke-width="0" font-size="10" text-anchor="end" dy="-1.33333">I1[31:0]</text>
<text x="3156" y="239" fill="white" stroke-width="0" font-size="8" text-anchor="end" dy="-1.06667">S=default</text>
<path d="M3260 230h-10" />
<text x="3252" y="229" fill="#f7f8f9" stroke-width="0" font-size="10" dy="-1.33333">O[31:0]</text>
<path d="M3230 260v-8" />
<text x="3228" y="260" fill="#f7f8f9" stroke-width="0" font-size="10" text-anchor="end" dy="8">S[6:0]</text>
</g>
<g stroke="#797f8e">
<path d="M3042 300h16" />
<path d="M3045 303h10" />
<path d="M3048 306h4" />
<path d="M3570 60l40 15v30l-40 15z" stroke="none" fill="#50306c" />
<path d="M3570 60l40 15v30l-40 15z" />
<text x="3590" y="58" fill="#f7f8f9" stroke-width="0" text-anchor="middle" dy="-1.6">alu_in1_i</text>
<text x="3594" y="114" fill="#f7f8f9" stroke-width="0" dy="9.6">RTL_MUX</text>
</g>
<g stroke="#f7f8f9">
<path d="M3590 120v-8" />
<text x="3588" y="120" fill="#f7f8f9" stroke-width="0" font-size="10" text-anchor="end" dy="8">S</text>
</g>
<g stroke="#f7f8f9" stroke-width="3">
<path d="M3560 80h10" />
<text x="3568" y="79" fill="#f7f8f9" stroke-width="0" font-size="10" text-anchor="end" dy="-1.33333">I0[31:0]</text>
<text x="3516" y="79" fill="white" stroke-width="0" font-size="8" text-anchor="end" dy="-1.06667">S=1&apos;b1</text>
<path d="M3560 100h10" />
<text x="3568" y="99" fill="#f7f8f9" stroke-width="0" font-size="10" text-anchor="end" dy="-1.33333">I1[31:0]</text>
<text x="3516" y="99" fill="white" stroke-width="0" font-size="8" text-anchor="end" dy="-1.06667">S=default</text>
<path d="M3620 90h-10" />
<text x="3612" y="89" fill="#f7f8f9" stroke-width="0" font-size="10" dy="-1.33333">O[31:0]</text>
<path d="M3570 180l40 15v30l-40 15z" stroke="none" fill="#50306c" />
</g>
<g stroke="#797f8e">
<path d="M3570 180l40 15v30l-40 15z" />
<text x="3590" y="178" fill="#f7f8f9" stroke-width="0" text-anchor="middle" dy="-1.6">alu_in2_i</text>
<text x="3594" y="234" fill="#f7f8f9" stroke-width="0" dy="9.6">RTL_MUX</text>
</g>
<g stroke="#f7f8f9">
<path d="M3590 240v-8" />
<text x="3588" y="240" fill="#f7f8f9" stroke-width="0" font-size="10" text-anchor="end" dy="8">S</text>
</g>
<g stroke="#f7f8f9" stroke-width="3">
<path d="M3560 200h10" />
<text x="3568" y="199" fill="#f7f8f9" stroke-width="0" font-size="10" text-anchor="end" dy="-1.33333">I0[31:0]</text>
<text x="3516" y="199" fill="white" stroke-width="0" font-size="8" text-anchor="end" dy="-1.06667">S=1&apos;b1</text>
<path d="M3560 220h10" />
<text x="3568" y="219" fill="#f7f8f9" stroke-width="0" font-size="10" text-anchor="end" dy="-1.33333">I1[31:0]</text>
<text x="3516" y="219" fill="white" stroke-width="0" font-size="8" text-anchor="end" dy="-1.06667">S=default</text>
<path d="M3620 210h-10" />
<text x="3612" y="209" fill="#f7f8f9" stroke-width="0" font-size="10" dy="-1.33333">O[31:0]</text>
<path d="M3820 38h60v82h-60z" stroke="none" fill="#2e446d" />
</g>
<g stroke="#797f8e">
<path d="M3820 38h60v82h-60z" />
</g>
<g stroke="#797f8e" stroke-width="3">
<path d="M3831 43v12" />
<path d="M3825 49h12" />
</g>
<g stroke="#797f8e">
<path d="M3823 41h16v16h-16z" />
<text x="3850" y="36" fill="#f7f8f9" stroke-width="0" text-anchor="middle" dy="-1.6">alu_inst</text>
<text x="3850" y="122" fill="#f7f8f9" stroke-width="0" text-anchor="middle" dy="9.6">ALU</text>
</g>
<g stroke="#f7f8f9">
<path d="M3890 90h-10" />
<text x="3882" y="89" fill="#f7f8f9" stroke-width="0" font-size="10" dy="-1.33333">zero</text>
</g>
<g stroke="#f7f8f9" stroke-width="3">
<path d="M3810 70h10" />
<text x="3818" y="69" fill="#f7f8f9" stroke-width="0" font-size="10" text-anchor="end" dy="-1.33333">A[31:0]</text>
<path d="M3810 90h10" />
<text x="3818" y="89" fill="#f7f8f9" stroke-width="0" font-size="10" text-anchor="end" dy="-1.33333">ALU_Sel[4:0]</text>
<path d="M3810 110h10" />
<text x="3818" y="109" fill="#f7f8f9" stroke-width="0" font-size="10" text-anchor="end" dy="-1.33333">B[31:0]</text>
<path d="M3890 70h-10" />
<text x="3882" y="69" fill="#f7f8f9" stroke-width="0" font-size="10" dy="-1.33333">Y[31:0]</text>
</g>
<g stroke="#f7f8f9">
<path d="M3870 90h10" />
</g>
<g stroke="#f7f8f9" stroke-width="3">
<path d="M3830 70h-10" />
<path d="M3830 90h-10" />
<path d="M3830 110h-10" />
<path d="M3870 70h10" />
</g>
<g stroke-width="2">
<path d="M3200 110h-145l-1 1" />
</g>
<g stroke="white">
<path d="M3055 110l-5 5v1" />
</g>
<g>
<path d="M3050 115v185" />
<path d="M3050 220h150" />
<path d="M3048 218h5v5h-5z" stroke="none" fill="#628d30" />
</g>
<g stroke-width="2">
<path d="M1270 570h-125l-1 1" />
</g>
<g stroke="white">
<path d="M1145 570l-5 5v1" />
</g>
<g>
<path d="M1140 575v35" />
</g>
<g stroke-width="2">
<path d="M950 210h-135l-1 1" />
</g>
<g stroke="white">
<path d="M815 210l-5 5v1" />
</g>
<g>
<path d="M810 215v35" />
<path d="M3050 50v55l1 1" />
</g>
<g stroke="white">
<path d="M3050 105l5 5h1" />
</g>
<g stroke-width="2">
<path d="M3055 110h145" />
</g>
<g>
<path d="M1140 510v55l1 1" />
</g>
<g stroke="white">
<path d="M1140 565l5 5h1" />
</g>
<g stroke-width="2">
<path d="M1145 570h125" />
</g>
<g>
<path d="M810 150v55l1 1" />
</g>
<g stroke="white">
<path d="M810 205l5 5h1" />
</g>
<g stroke-width="2">
<path d="M815 210h135" />
</g>
<g stroke="#009633" stroke-width="3">
<path d="M180 230h110v-200h3420v60h100" />
<path d="M3620 90h70v-20h120" />
<path d="M3620 210h70v-100h120" />
<path d="M3260 230h130v-130h170" />
</g>
<g stroke="#009633" stroke-width="3" stroke-dasharray="7,3" stroke-dashoffset="3">
<path d="M1270 200h-130v-50h360v60h130" />
<path d="M1500 150h320" />
<path d="M1817 147h7v7h-7z" stroke="none" fill="#009633" />
<path d="M1497 147h7v7h-7z" stroke="none" fill="#009633" />
<path d="M2050 270h-230v-260h2140v60h-70" />
</g>
<g stroke="#009633" stroke-width="3">
<path d="M180 290h150v-80h180" />
<path d="M950 310h-180v-200h2220v60h340v30h230" />
<path d="M590 210h180" />
<path d="M767 207h7v7h-7z" stroke="none" fill="#009633" />
<path d="M10 333v-163h340" />
<path d="M347 167h7v7h-7z" stroke="none" fill="#009633" />
<path d="M790 193v-63h1820v233" />
<path d="M2610 130h400" />
<path d="M3007 127h7v7h-7z" stroke="none" fill="#009633" />
<path d="M10 330h90" />
<path d="M10 310h90" />
<path d="M10 290h90" />
<path d="M510 230h-160v-80h440" />
<path d="M787 147h7v7h-7z" stroke="none" fill="#009633" />
<path d="M790 190h160" />
<path d="M2610 260h160" />
<path d="M2610 280h160" />
<path d="M2570 360h40" />
<path d="M2610 360h160" />
<path d="M2607 127h7v7h-7z" stroke="none" fill="#009633" />
<path d="M3010 87v203h215l1 -1" />
</g>
<g stroke="white" stroke-width="3">
<path d="M3225 290l5 -5v-1" />
</g>
<g stroke="#009633" stroke-width="3">
<path d="M3230 285v-25" />
<path d="M3010 90h190" />
</g>
<g stroke="white" stroke-width="3">
<path d="M3009 85v10l11 -5" stroke="none" fill="white" />
<path d="M9 325v10l11 -5" stroke="none" fill="white" />
<path d="M9 305v10l11 -5" stroke="none" fill="white" />
<path d="M9 285v10l11 -5" stroke="none" fill="white" />
<path d="M789 185v10l11 -5" stroke="none" fill="white" />
<path d="M2609 255v10l11 -5" stroke="none" fill="white" />
<path d="M2609 275v10l11 -5" stroke="none" fill="white" />
<path d="M2609 355v10l11 -5" stroke="none" fill="white" />
</g>
<g stroke="#009633" stroke-width="3" stroke-dasharray="7,3" stroke-dashoffset="3">
<path d="M1710 250h340" />
</g>
<g stroke="#009633" stroke-width="3">
<path d="M1690 500h130v20h230" />
<path d="M1330 210h110v280h190" />
<path d="M1010 300h90v-80h170" />
</g>
<g stroke="#009633" stroke-width="3" stroke-dasharray="7,3" stroke-dashoffset="3">
<path d="M950 290h-140v100h290v160h170" />
<path d="M1100 490h300v-70h840" />
<path d="M2237 417h7v7h-7z" stroke="none" fill="#009633" />
<path d="M1097 487h7v7h-7z" stroke="none" fill="#009633" />
<path d="M2130 520h110v-160h130" />
<path d="M2240 420h1170v-340h150" />
</g>
<g stroke="#009633" stroke-width="3">
<path d="M1330 560h170v-120h720v-190h150" />
<path d="M1500 510h130" />
<path d="M1497 507h7v7h-7z" stroke="none" fill="#009633" />
<path d="M2850 280h140v-40h210" />
<path d="M1630 290h-130v60h380v-170h1090v140h460v-100h130" />
<path d="M2850 300h120" />
<path d="M2967 297h7v7h-7z" stroke="none" fill="#009633" />
<path d="M2430 260h160v80h180" />
<path d="M2110 260h90v10h170" />
</g>
<g>
<path d="M180 250h130v-200h2720v100h320v120h240v-30" />
<path d="M3260 100h110v50h220v-30" />
<path d="M180 270h550v180h220" />
</g>
<g stroke-dasharray="7,3" stroke-dashoffset="3">
<path d="M1630 230h-150v140h420" />
<path d="M1898 368h5v5h-5z" stroke="none" fill="#628d30" />
<path d="M2050 500h-150v-300h730v40h140" />
</g>
<g>
<path d="M1010 200h110v70h180v-30" />
<path d="M180 310h170v-20h360v-220h1530v250h160v-30" />
<path d="M180 330h210v20h1010v-100h230" />
<path d="M180 350h190v-40h380v-220h1110v230h220v-30" />
<path d="M180 370h1240v-100h210" />
<path d="M1330 440h90v100h90v20h150v-30" />
<path d="M1010 460h130v-30h130" />
<path d="M180 390h110v20h850v-20h320v-60h380v-170h810v160h120" />
</g>
<g stroke-dasharray="7,3" stroke-dashoffset="3">
<path d="M2050 540h-130v-140h710v-100h140" />
</g>
<g>
<path d="M950 470h-140v160h3150v-540h-70" />
</g>
</g>
</svg>
